# Blender 4.0.2
# www.blender.org
mtllib boat.mtl
o Boat
v 1.801483 -0.560051 1.699615
v 1.809624 0.745423 1.868300
v 1.796200 -0.413404 1.564460
v 1.802602 0.745423 1.688695
v 3.152637 -0.413404 0.940592
v 3.175739 0.745423 1.024731
v 3.166607 -0.560051 0.855367
v 3.193003 0.745423 1.199797
v 1.809495 0.614876 1.865004
v 3.192792 0.614876 1.197068
v 1.812155 0.739902 1.977419
v 1.812025 0.609354 1.974123
v 3.198300 0.609354 1.306187
v 3.198511 0.739902 1.308916
v 1.810798 0.027412 1.887709
v 3.198527 0.027412 1.207925
v -3.792511 0.739902 1.996359
v 1.801962 0.629541 1.676271
v 3.173429 0.629541 1.017511
v 1.800719 0.773360 1.491600
v 3.164985 0.784743 0.868993
v 3.163269 0.667451 0.858157
v 1.800337 0.656556 1.479077
v -0.974467 -0.478932 1.758591
v -0.973268 0.745423 2.104444
v -0.974467 -0.413404 1.800605
v -0.974914 0.745423 1.924839
v -0.975865 0.614876 2.101148
v -0.972636 0.739902 2.213564
v -0.974691 0.609354 2.210268
v -0.975439 0.027412 2.123853
v -0.974870 0.629541 1.912416
v -0.975351 0.759392 1.826292
v -0.975246 0.643048 1.813819
v -3.792445 0.608445 1.983311
v -3.788270 0.746179 1.579288
v -3.786668 0.633184 1.567207
v -3.792645 0.745423 1.887239
v -3.792421 0.609354 1.919060
v -3.792699 0.745423 1.707634
v 1.806113 0.745423 1.778497
v 3.184371 0.745423 1.112264
v -3.792645 0.745423 1.787415
v -0.974091 0.745423 2.014642
v -3.792124 0.629541 1.695211
v -3.792376 0.614876 1.788268
v -3.789537 0.108068 1.639305
v -3.790541 0.027412 1.793611
v 3.163033 0.108068 0.985021
v 1.799081 0.108068 1.620366
v -0.974669 0.108068 1.856510
v -3.786951 -0.332286 1.406232
v -3.790597 -0.478932 1.541386
v -3.638294 0.798383 1.762689
v -3.756082 0.798383 1.762689
v -3.756082 -0.182634 1.598411
v -3.756082 0.076583 1.715678
v -3.638294 -0.182634 1.598411
v -3.638294 0.076583 1.715678
v -3.756082 -0.464892 0.759936
v -3.756082 -0.377806 1.329876
v -3.638294 -0.464892 0.759936
v -3.638294 -0.377806 1.329876
v -3.638294 0.910450 0.880466
v -3.756082 0.910450 0.880466
v -0.968626 0.427968 1.997898
v -0.190798 0.427968 1.997898
v -0.968626 0.549073 1.997898
v -0.190798 0.549073 1.997898
v 3.974936 0.745423 0.000000
v 4.300089 0.745423 0.000000
v 4.378610 0.027412 0.000000
v 0.077528 -0.559660 0.000000
v 3.794477 0.108068 0.000000
v -3.790597 -0.559606 0.000000
v -3.756083 -0.465140 0.000000
v -3.756082 0.962319 0.000000
v -0.968626 0.427968 0.000000
v -0.190798 0.427968 0.000000
v -0.190798 0.549073 0.000000
v -3.790597 -0.478933 -1.541386
v -0.974467 -0.478933 -1.758591
v 1.801483 -0.560052 -1.699614
v 3.166607 -0.560052 -0.855367
v 3.198527 0.027412 -1.207925
v 1.810798 0.027412 -1.887708
v 1.800719 0.773360 -1.491600
v 1.800337 0.656556 -1.479077
v -0.975246 0.643048 -1.813819
v -0.975351 0.759392 -1.826291
v -3.792645 0.745423 -1.887239
v -0.973268 0.745423 -2.104444
v -0.974091 0.745423 -2.014641
v -3.792645 0.745423 -1.787414
v 1.809624 0.745423 -1.868299
v 3.193003 0.745423 -1.199796
v 3.184371 0.745423 -1.112264
v 1.806113 0.745423 -1.778497
v -3.786951 -0.332286 -1.406232
v -0.974467 -0.413405 -1.800605
v -0.974424 -0.413404 0.000000
v -3.786951 -0.412916 0.000000
v 3.912609 -0.560051 0.000000
v 4.137465 0.745423 0.000000
v 3.152637 -0.413404 -0.940592
v 1.796200 -0.413405 -1.564460
v 1.799081 0.108068 -1.620366
v 3.163033 0.108068 -0.985021
v 1.812025 0.609354 -1.974123
v 1.812155 0.739902 -1.977419
v -0.972636 0.739901 -2.213563
v -0.974691 0.609354 -2.210267
v 3.198300 0.609354 -1.306187
v 3.198511 0.739902 -1.308916
v -3.792376 0.614876 -1.788267
v -0.975865 0.614876 -2.101148
v -3.792421 0.609354 -1.919060
v 1.809495 0.614876 -1.865003
v 3.192792 0.614876 -1.197068
v 4.296739 0.614876 0.000000
v 4.403395 0.609354 0.000000
v -0.975439 0.027412 -2.123853
v 1.801962 0.629540 -1.676271
v -0.974669 0.108068 -1.856510
v -0.974870 0.629540 -1.912415
v 3.163269 0.667450 -0.858157
v 3.164985 0.784742 -0.868992
v 3.730005 0.823860 0.000000
v 3.706476 0.706624 0.000000
v -3.792699 0.745423 -1.707634
v -0.974914 0.745423 -1.924839
v -3.788270 0.746179 -1.579287
v 1.802602 0.745423 -1.688694
v 3.175739 0.745423 -1.024731
v 3.173429 0.629540 -1.017511
v 3.435230 -0.413404 0.000000
v -3.792511 0.739902 -1.996358
v -3.792445 0.608445 -1.983310
v -3.789537 0.108068 -1.639305
v -3.790541 0.027412 -1.793611
v -3.792124 0.629540 -1.695210
v -3.786668 0.633184 -1.567206
v 3.942011 0.629540 0.000000
v -3.638294 0.076583 -1.715678
v -3.638294 -0.182634 -1.598411
v -3.638294 -0.377806 -1.329876
v -3.638294 -0.464892 -0.759936
v -3.638294 -0.465140 0.000000
v -3.638294 0.962319 0.000000
v -3.638294 0.910450 -0.880466
v -3.638294 0.798383 -1.762688
v -3.756082 -0.464892 -0.759936
v -3.756082 -0.377806 -1.329876
v -3.756082 -0.182634 -1.598411
v -3.756082 0.076583 -1.715678
v -3.756082 0.798383 -1.762688
v -3.756082 0.910450 -0.880466
v -0.968626 0.427968 -1.997897
v -0.190798 0.427968 -1.997897
v -0.968626 0.549073 -1.997897
v -0.190798 0.549073 -1.997897
v -0.968626 0.549073 0.000000
v 4.406768 0.739901 0.000000
vn -0.0016 -0.9988 0.0483
vn -0.0016 -1.0000 -0.0000
vn -0.0084 -1.0000 -0.0000
vn -0.0049 -0.9993 0.0362
vn 0.2598 -0.4269 0.8662
vn 0.5729 -0.4332 0.6958
vn 0.5800 -0.1880 0.7926
vn 0.2599 -0.1994 0.9448
vn -0.2679 0.1013 -0.9581
vn -0.2716 0.1011 -0.9571
vn -0.0165 0.1069 -0.9941
vn -0.0168 0.1069 -0.9941
vn -0.0019 0.9997 0.0240
vn 0.0001 0.9996 0.0266
vn -0.0000 1.0000 -0.0000
vn 0.0086 0.9996 0.0279
vn 0.0238 0.9993 0.0271
vn 0.0163 0.9996 -0.0251
vn 0.0080 0.9999 -0.0123
vn 0.0081 1.0000 -0.0000
vn 0.0163 0.9999 -0.0000
vn 0.6500 -0.4575 0.6068
vn 0.7170 -0.1694 0.6762
vn 0.0382 0.9993 -0.0000
vn -0.6868 0.2239 -0.6915
vn -0.2575 0.1008 -0.9610
vn -0.2573 0.0982 -0.9613
vn -0.6595 0.1653 -0.7333
vn 0.2643 -0.0240 0.9642
vn 0.2630 -0.0240 0.9645
vn 0.0056 -0.1604 0.9870
vn 0.0040 -0.1631 0.9866
vn 0.5960 -0.0196 0.8027
vn 0.5939 -0.0196 0.8043
vn 0.0002 0.9987 0.0505
vn 0.0124 0.9987 0.0501
vn 0.0049 -0.9989 -0.0460
vn 0.0004 -0.9988 -0.0482
vn 0.0003 -0.9988 -0.0483
vn -0.0155 -0.9986 -0.0500
vn -0.0425 -0.9979 -0.0484
vn -0.0320 -0.9983 -0.0491
vn -0.0124 -0.9987 -0.0501
vn -0.0518 -0.9987 -0.0000
vn 0.0320 0.9983 0.0491
vn 0.2662 0.0340 0.9633
vn -0.0147 0.0312 0.9994
vn -0.0182 -0.2315 0.9727
vn 0.5903 0.0451 0.8059
vn -0.2569 0.0958 -0.9617
vn 0.0038 0.1523 -0.9883
vn -0.0039 0.1068 -0.9943
vn -0.8384 0.1149 -0.5328
vn -0.4137 0.0941 -0.9056
vn -0.0040 0.9994 0.0336
vn 0.0010 0.9988 0.0487
vn 0.0022 0.9947 0.1028
vn -0.0077 0.9979 0.0646
vn 0.0180 0.9974 0.0701
vn 0.0610 0.9945 0.0850
vn 0.2221 0.9512 0.2143
vn 0.0525 0.9848 0.1655
vn 0.0876 0.9962 -0.0000
vn 0.2973 0.9548 -0.0000
vn -0.1378 -0.9721 -0.1900
vn -0.0389 -0.9876 -0.1523
vn -0.0502 -0.9860 -0.1591
vn -0.2225 -0.9523 -0.2087
vn -0.0018 -0.9944 -0.1055
vn -0.0019 -0.9944 -0.1058
vn -0.0212 -0.4865 0.8735
vn -0.0750 -0.2935 0.9530
vn -0.0039 0.9987 0.0506
vn 0.0110 0.1975 -0.9802
vn 0.1076 0.2864 -0.9521
vn 0.0926 0.1983 -0.9758
vn -0.0827 -0.5189 0.8508
vn -0.1019 -0.2623 0.9596
vn -0.1134 0.0235 0.9933
vn 0.0080 -0.9971 -0.0753
vn 0.0865 0.1067 -0.9905
vn -1.0000 -0.0010 0.0006
vn -1.0000 -0.0015 0.0001
vn -1.0000 -0.0014 0.0002
vn -1.0000 -0.0026 -0.0008
vn -1.0000 -0.0030 -0.0029
vn -0.9992 -0.0054 -0.0386
vn -0.9999 -0.0042 -0.0158
vn -0.9998 -0.0043 -0.0188
vn -1.0000 -0.0003 -0.0094
vn -0.9999 0.0009 -0.0103
vn -0.6373 0.1146 -0.7621
vn 0.0765 0.1065 -0.9914
vn -0.8114 0.1405 -0.5673
vn -0.8363 0.2183 -0.5029
vn -0.9999 0.0150 -0.0067
vn -0.9999 0.0125 -0.0081
vn -0.9997 0.0242 -0.0000
vn 1.0000 -0.0000 -0.0000
vn -1.0000 -0.0000 -0.0000
vn -0.0000 -0.1652 0.9863
vn -0.0000 0.9920 0.1260
vn -0.0000 0.9957 0.0925
vn -0.0000 -0.9477 0.3190
vn -0.0000 -0.9868 0.1618
vn -0.0000 -1.0000 -0.0000
vn -0.0000 -0.0000 1.0000
vn -0.8557 0.3206 -0.4062
vn 0.7348 -0.0172 0.6781
vn 0.0518 0.9987 -0.0000
vn 0.7238 0.0603 0.6874
vn -0.2984 -0.9544 -0.0000
vn -0.0117 -0.9999 -0.0000
vn -0.0117 -0.9999 0.0116
vn -0.0016 -0.9988 -0.0483
vn -0.0049 -0.9993 -0.0362
vn 0.2598 -0.4269 -0.8662
vn 0.2599 -0.1994 -0.9448
vn 0.5800 -0.1880 -0.7926
vn 0.5729 -0.4332 -0.6958
vn -0.2679 0.1013 0.9581
vn -0.0168 0.1069 0.9941
vn -0.0165 0.1069 0.9941
vn -0.2716 0.1011 0.9571
vn -0.0019 0.9997 -0.0240
vn 0.0001 0.9996 -0.0266
vn 0.0086 0.9996 -0.0279
vn 0.0238 0.9993 -0.0271
vn 0.0163 0.9996 0.0251
vn 0.0080 0.9999 0.0123
vn 0.7170 -0.1694 -0.6762
vn 0.6500 -0.4575 -0.6068
vn -0.6868 0.2239 0.6915
vn -0.6595 0.1653 0.7333
vn -0.2573 0.0982 0.9613
vn -0.2575 0.1008 0.9610
vn 0.2643 -0.0240 -0.9642
vn 0.0040 -0.1631 -0.9866
vn 0.0056 -0.1604 -0.9870
vn 0.2630 -0.0240 -0.9645
vn 0.5960 -0.0196 -0.8027
vn 0.5939 -0.0196 -0.8043
vn 0.0124 0.9987 -0.0501
vn 0.0002 0.9987 -0.0505
vn 0.0049 -0.9989 0.0460
vn 0.0003 -0.9988 0.0483
vn 0.0004 -0.9988 0.0482
vn -0.0155 -0.9986 0.0500
vn -0.0124 -0.9987 0.0501
vn -0.0320 -0.9983 0.0491
vn -0.0425 -0.9979 0.0484
vn 0.0320 0.9983 -0.0491
vn -0.0182 -0.2315 -0.9727
vn -0.0147 0.0312 -0.9994
vn 0.2662 0.0340 -0.9633
vn 0.5903 0.0451 -0.8059
vn -0.2569 0.0958 0.9617
vn -0.0039 0.1068 0.9943
vn 0.0038 0.1523 0.9883
vn -0.8384 0.1149 0.5328
vn -0.4137 0.0941 0.9056
vn -0.0040 0.9994 -0.0336
vn -0.0077 0.9979 -0.0646
vn 0.0022 0.9947 -0.1028
vn 0.0010 0.9988 -0.0487
vn 0.0180 0.9974 -0.0701
vn 0.0525 0.9848 -0.1655
vn 0.2221 0.9512 -0.2143
vn 0.0610 0.9945 -0.0850
vn -0.1378 -0.9721 0.1900
vn -0.2225 -0.9523 0.2087
vn -0.0502 -0.9860 0.1591
vn -0.0389 -0.9876 0.1523
vn -0.0019 -0.9944 0.1058
vn -0.0018 -0.9944 0.1055
vn -0.0212 -0.4865 -0.8735
vn -0.0750 -0.2935 -0.9530
vn -0.0039 0.9987 -0.0506
vn 0.0110 0.1975 0.9802
vn 0.0926 0.1983 0.9758
vn 0.1076 0.2864 0.9521
vn -0.0827 -0.5189 -0.8508
vn -0.1019 -0.2623 -0.9596
vn -0.1134 0.0235 -0.9933
vn 0.0080 -0.9971 0.0753
vn 0.0865 0.1067 0.9905
vn -1.0000 -0.0010 -0.0006
vn -1.0000 -0.0014 -0.0002
vn -1.0000 -0.0015 -0.0001
vn -1.0000 -0.0030 0.0029
vn -1.0000 -0.0026 0.0008
vn -0.9992 -0.0054 0.0386
vn -0.9998 -0.0043 0.0188
vn -0.9999 -0.0042 0.0158
vn -0.9999 0.0009 0.0103
vn -1.0000 -0.0003 0.0094
vn -0.6373 0.1146 0.7621
vn 0.0765 0.1065 0.9914
vn -0.8363 0.2183 0.5029
vn -0.8114 0.1405 0.5673
vn -0.9999 0.0125 0.0081
vn -0.9999 0.0150 0.0067
vn -0.0000 -0.1652 -0.9863
vn -0.0000 0.9920 -0.1260
vn -0.0000 0.9957 -0.0925
vn -0.0000 -0.9477 -0.3190
vn -0.0000 -0.9868 -0.1618
vn -0.0000 -0.0000 -1.0000
vn -0.8557 0.3206 0.4062
vn 0.7348 -0.0172 -0.6781
vn 0.7238 0.0603 -0.6874
vn -0.0117 -0.9999 -0.0116
vt -0.561166 3.529841
vt -0.561166 4.362856
vt 1.246804 4.362856
vt 0.755099 3.412456
vt 3.571481 -3.636805
vt 5.148121 -3.659544
vt 4.754160 -3.169585
vt 3.478763 -3.169585
vt 2.130469 -3.786449
vt 2.134826 -3.931462
vt 0.636660 -3.948231
vt 0.640059 -3.803791
vt -2.001688 -1.148049
vt -0.996185 -1.147534
vt -0.996500 -1.102120
vt -2.001688 -1.100596
vt -1.998285 -1.567083
vt -1.462530 -1.558747
vt -1.465842 -1.514923
vt -1.999632 -1.524394
vt -0.550820 3.559464
vt 0.925668 3.427047
vt 0.912833 4.359113
vt -0.550820 4.359113
vt 6.700206 -3.640532
vt 6.700206 -3.174743
vt -0.996632 -1.567385
vt -0.996632 -1.516922
vt 1.344374 -2.008926
vt 0.989408 -2.008926
vt 0.979894 -1.577244
vt 1.331165 -1.577244
vt 1.986859 -3.990063
vt 1.986047 -3.827987
vt 0.733882 -3.827987
vt 0.732452 -3.990063
vt 2.514587 -3.990063
vt 2.513780 -3.827987
vt -0.998031 -1.349946
vt -1.996921 -1.345089
vt -1.996678 -1.399444
vt -0.997060 -1.398050
vt 2.444308 2.862767
vt 2.895676 2.862767
vt 2.433292 2.862767
vt 2.395676 2.862767
vt 2.645676 2.862767
vt 2.883292 2.862767
vt 2.878960 2.862767
vt -1.997313 -1.618955
vt -1.460417 -1.613378
vt 3.488997 -2.723910
vt 1.694101 -2.747043
vt 1.702138 -3.169585
vt 4.762924 -2.710022
vt 0.970887 -1.145563
vt 0.462084 -1.577244
vt 0.467247 -1.145563
vt 2.655769 -3.917936
vt 2.652242 -3.772317
vt 2.966869 -3.723753
vt 2.966869 -3.869302
vt -2.001709 -1.062671
vt -0.996816 -1.056705
vt -0.996984 -1.006869
vt -2.000010 -1.001659
vt -2.000979 -1.481705
vt -1.469155 -1.471100
vt -1.473281 -1.393129
vt -2.001701 -1.388013
vt -0.996632 -1.466489
vt -0.996632 -1.390486
vt 3.395676 2.862767
vt 1.555693 -3.595068
vt -0.999378 -1.310357
vt -1.997237 -1.300356
vt 2.354679 3.561330
vt 3.093639 3.916091
vt 3.095564 4.359113
vt 0.101319 -3.827987
vt 0.098580 -3.991192
vt 0.084963 -3.990063
vt -2.001637 -1.199921
vt -0.995942 -1.202716
vt 0.456624 -2.008926
vt 0.008259 -1.941775
vt 0.059087 -1.577244
vt -1.997552 -1.255624
vt -1.000725 -1.270769
vt -1.001448 -1.183882
vt -1.997720 -1.206535
vt 0.066290 -3.505089
vt 0.253681 -3.169585
vt 0.249369 -2.809972
vt 2.422901 2.865266
vt 0.008002 -3.960478
vt 0.010602 -3.820194
vt 0.078134 -3.821132
vt 0.056522 -3.821132
vt 0.056734 -3.983207
vt 0.036261 -3.965001
vt 0.038964 -3.821132
vt 1.023907 -0.420526
vt 1.000244 -0.416265
vt 0.986028 -0.567773
vt 1.025266 -0.591207
vt 1.322048 -1.145563
vt 0.070221 -1.145563
vt 1.724081 -0.986876
vt 1.726255 -1.420730
vt 0.926760 -0.695713
vt 0.961128 -0.738320
vt 0.569173 -0.719139
vt 0.569173 -0.761758
vt 2.213997 5.887345
vt 2.141622 5.684203
vt 1.975888 5.531252
vt 1.624131 5.463005
vt 1.155113 5.462811
vt 1.155113 6.581472
vt 1.698521 6.540823
vt 2.243011 6.452999
vt 2.213997 5.887345
vt 1.155114 6.581472
vt 1.155114 5.462811
vt 2.812852 1.962767
vt 3.395676 1.962767
vt 3.395676 2.962767
vt 2.812852 2.962767
vt 2.650245 2.962767
vt 2.650245 1.962767
vt -2.996580 0.812616
vt -2.773506 0.812616
vt -2.773506 1.002229
vt -2.996580 1.002230
vt 2.529833 2.962767
vt 2.395676 2.962767
vt 2.395676 1.962767
vt 2.529833 1.962767
vt -2.550876 0.812616
vt -2.550876 1.002229
vt -0.407446 0.411265
vt 0.509104 0.411265
vt 0.509105 0.040886
vt -0.407446 0.040886
vt 1.432989 0.001611
vt 1.428931 0.401291
vt 0.527469 0.405633
vt 0.531527 0.005953
vt 2.246272 -0.186829
vt 0.499201 -0.186829
vt 0.499201 -0.011087
vt 2.246272 -0.011087
vt 1.722994 -2.008926
vt 2.966869 -3.827988
vt 2.966869 -3.990063
vt -0.996632 -1.600487
vt 6.700206 -2.736645
vt 2.881517 2.862767
vt 2.887915 2.862767
vt 3.039330 4.362856
vt 2.690646 3.900588
vt 2.052585 3.444329
vt 2.896829 1.962767
vt 2.896829 2.962767
vt 0.499201 -0.191306
vt 2.246272 -0.191306
vt 2.246272 -0.011961
vt 0.499201 -0.011961
vt -0.561166 5.195871
vt 0.755099 5.313256
vt 9.602503 -3.641962
vt 9.695221 -3.174743
vt 8.419823 -3.174743
vt 8.025862 -3.664701
vt 0.275262 -0.316970
vt 0.718837 -0.320366
vt 0.719848 -0.348648
vt 0.273966 -0.345364
vt 0.000708 0.964432
vt 0.000708 0.914337
vt 1.001094 0.901347
vt 1.001386 0.946215
vt 1.007050 0.947784
vt 1.005703 0.913950
vt 1.411257 0.912264
vt 1.414570 0.950112
vt -0.550820 5.158762
vt 0.921995 5.166271
vt 1.998451 0.917842
vt 1.998451 0.964066
vt 2.206245 -2.006028
vt 2.219454 -1.574347
vt 2.570726 -1.574347
vt 2.561212 -2.006028
vt 0.318003 -0.356838
vt 0.691339 -0.356838
vt 0.690913 -0.325104
vt 0.318245 -0.325104
vt 0.160942 -0.356838
vt 0.161182 -0.325104
vt 1.001690 0.757649
vt 1.002587 0.800212
vt 0.000653 0.814659
vt 0.000429 0.756618
vt 1.416683 0.997293
vt 1.008022 0.988895
vt 11.471842 -3.174743
vt 11.479879 -2.752200
vt 9.684986 -2.729067
vt 8.411060 -2.715180
vt 2.579732 -1.142666
vt 3.083372 -1.142666
vt 3.088535 -1.574347
vt 0.118923 -0.342716
vt 0.026334 -0.333193
vt 0.026334 -0.304694
vt 0.119973 -0.314203
vt 0.000689 0.874300
vt 0.002259 0.809892
vt 1.000647 0.807243
vt 1.000802 0.856479
vt 1.004356 0.880117
vt 1.003634 0.805861
vt 1.403818 0.807078
vt 1.407945 0.874417
vt 1.998451 0.802027
vt 1.998451 0.873653
vt 11.618292 -3.600226
vt 0.000138 0.708852
vt 1.000445 0.722620
vt 3.089966 4.904999
vt 2.347332 5.160570
vt 0.884044 -0.356838
vt 0.879991 -0.357059
vt 0.879176 -0.325104
vt 1.001610 1.000733
vt 0.000756 1.019191
vt 3.093995 -2.006028
vt 3.491534 -1.574347
vt 3.542361 -1.938877
vt -0.000154 0.661086
vt -0.000309 0.608668
vt 0.998532 0.610713
vt 0.999200 0.687592
vt 13.107692 -3.510246
vt 12.920299 -3.174743
vt 12.924613 -2.815130
vt 0.906949 -0.351046
vt 0.906175 -0.323578
vt 0.886076 -0.323761
vt 0.892446 -0.355496
vt 0.892509 -0.323761
vt 0.897734 -0.323761
vt 0.898539 -0.351931
vt 0.114438 -0.420526
vt 0.113079 -0.591207
vt 0.152318 -0.567773
vt 0.138102 -0.416265
vt 2.228572 -1.142666
vt 3.480398 -1.142666
vt 0.177217 -0.738320
vt 0.211585 -0.695713
vt 0.096230 5.887345
vt 0.067216 6.452999
vt 0.611707 6.540823
vt 0.686095 5.463005
vt 0.334340 5.531252
vt 0.168605 5.684203
vt -2.105171 0.812616
vt -2.105171 1.002228
vt -2.328246 1.002229
vt -2.328246 0.812616
vt 1.425655 0.411265
vt 1.425655 0.040886
vt -0.426739 0.010295
vt -0.430796 0.409974
vt -1.247872 -0.186829
vt -1.247872 -0.011087
vt 0.026334 -0.325104
vt 0.026334 -0.356838
vt 1.998451 0.994388
vt 2.052585 5.281384
vt 2.690646 4.825124
vt -1.247872 -0.011961
vt -1.247872 -0.191306
s 1
usemtl Material_#8
f 53/1/1 75/2/2 73/3/3 24/4/4
f 1/5/5 7/6/6 16/7/7 15/8/8
f 20/9/9 23/10/10 34/11/11 33/12/12
f 38/13/13 25/14/14 44/15/15 43/16/15
f 2/17/16 8/18/17 42/19/15 41/20/15
f 52/21/18 26/22/19 101/23/20 102/24/21
f 7/6/6 103/25/22 72/26/23 16/7/7
f 8/18/17 71/27/24 104/28/15 42/19/15
f 5/29/25 3/30/26 50/31/27 49/32/28
f 12/33/29 11/34/30 29/35/31 30/36/32
f 13/37/33 14/38/34 11/34/30 12/33/29
f 2/39/16 25/40/14 29/41/35 11/42/36
f 46/43/37 28/44/38 30/44/39 39/45/37
f 9/46/40 10/47/41 13/47/42 12/46/43
f 10/47/41 120/48/44 121/49/44 13/47/42
f 8/18/17 2/17/16 11/50/36 14/51/45
f 15/8/8 9/52/46 28/53/47 31/54/48
f 16/7/7 10/55/49 9/52/46 15/8/8
f 18/56/50 50/31/27 51/57/51 32/58/52
f 22/59/53 21/60/53 128/61/53 129/62/53
f 23/10/10 20/9/9 21/60/54 22/59/54
f 40/63/55 27/64/56 33/65/57 36/66/58
f 4/67/59 6/68/60 21/69/61 20/70/62
f 6/68/60 70/71/63 128/72/64 21/69/61
f 19/47/65 18/46/66 23/46/67 22/47/68
f 18/73/66 32/44/69 34/44/70 23/73/67
f 24/74/71 1/5/5 15/8/8 31/54/48
f 25/40/14 2/39/16 41/75/15 44/76/15
f 26/22/19 3/77/15 5/78/15 136/79/15 101/23/20
f 29/35/31 17/80/72 35/81/72 39/82/72 30/36/32
f 25/14/14 38/13/13 17/83/73 29/84/35
f 28/44/38 9/73/40 12/73/43 30/44/39
f 26/85/74 52/86/75 47/87/76 51/57/51
f 27/88/56 4/89/59 20/90/62 33/91/57
f 53/92/77 24/74/71 31/54/48 48/93/78
f 48/93/78 31/54/48 28/53/47 46/94/79
f 34/44/70 32/44/69 45/46/80 37/95/80
f 37/96/81 36/97/81 33/12/12 34/11/11
f 35/81/82 17/80/82 38/98/83 39/82/84
f 39/82/84 38/98/83 43/99/85 46/100/86
f 36/97/87 37/96/87 45/101/88 40/102/89
f 44/15/15 27/64/56 40/63/55 43/16/15
f 42/19/15 6/68/60 4/67/59 41/20/15
f 41/75/15 4/89/59 27/88/56 44/76/15
f 43/99/85 40/102/89 45/101/88 46/100/86
f 46/103/86 45/104/88 47/105/90 48/106/91
f 50/31/27 18/56/50 19/107/92 49/32/28
f 50/31/27 3/30/26 26/85/74 51/57/51
f 47/87/76 45/108/93 32/58/52 51/57/51
f 49/32/28 19/107/92 143/109/94 74/110/95
f 48/106/91 47/105/90 52/111/96 53/112/97
f 53/112/97 52/111/96 102/113/98 75/114/98
f 59/115/99 58/116/99 63/117/99 62/118/99 148/119/99 149/120/99 64/121/99 54/122/99
f 60/118/100 61/117/100 56/116/100 57/123/100 55/122/100 65/121/100 77/124/100 76/125/100
f 59/126/101 54/127/101 55/128/101 57/129/101 56/130/101 58/131/101
f 54/132/102 64/133/103 65/134/103 55/135/102
f 58/131/104 56/130/104 61/136/104 60/137/105 62/138/105 63/139/104
f 64/133/103 149/140/15 77/141/15 65/134/103
f 66/142/106 78/143/106 79/144/106 67/145/106
f 68/146/15 69/147/15 80/148/15 162/149/15
f 66/138/107 67/127/107 69/128/107 68/137/107
f 67/150/99 79/151/99 80/152/99 69/153/99
f 136/154/108 5/29/25 49/32/28 74/110/95
f 163/155/109 14/38/34 13/37/33 121/156/109
f 71/27/24 8/18/17 14/51/45 163/157/110
f 120/158/111 10/55/49 16/7/7 72/26/23
f 143/159/112 19/47/65 22/47/68 129/160/112
f 103/161/113 7/162/114 1/163/114 24/4/4 73/3/3
f 70/71/63 6/68/60 42/19/15 104/28/15
f 148/164/106 62/127/105 60/128/105 76/165/106
f 78/166/100 66/167/100 68/168/100 162/169/100
f 81/170/115 82/171/116 73/3/3 75/2/2
f 83/172/117 86/173/118 85/174/119 84/175/120
f 87/176/121 90/177/122 89/178/123 88/179/124
f 91/180/125 94/181/15 93/182/15 92/183/126
f 95/184/127 98/185/15 97/186/15 96/187/128
f 99/188/129 102/24/21 101/23/20 100/189/130
f 84/175/120 85/174/119 72/26/131 103/25/132
f 96/187/128 97/186/15 104/190/15 71/191/24
f 105/192/133 108/193/134 107/194/135 106/195/136
f 109/196/137 112/197/138 111/198/139 110/199/140
f 113/200/141 109/196/137 110/199/140 114/201/142
f 95/202/127 110/203/143 111/204/144 92/205/126
f 115/43/145 117/45/145 112/44/146 116/44/147
f 118/46/148 109/46/149 113/47/150 119/47/151
f 119/47/151 113/47/150 121/49/44 120/48/44
f 96/187/128 114/206/152 110/207/143 95/184/127
f 86/173/118 122/208/153 116/209/154 118/210/155
f 85/174/119 86/173/118 118/210/155 119/211/156
f 123/212/157 125/213/158 124/214/159 107/194/135
f 126/215/160 129/216/160 128/217/160 127/218/160
f 88/179/124 126/215/161 127/218/161 87/176/121
f 130/219/162 132/220/163 90/221/164 131/222/165
f 133/223/166 87/224/167 127/225/168 134/226/169
f 134/226/169 127/225/168 128/227/64 70/228/63
f 135/47/170 126/47/171 88/46/172 123/46/173
f 123/73/173 88/73/172 89/44/174 125/44/175
f 82/229/176 122/208/153 86/173/118 83/172/117
f 92/205/126 93/230/15 98/231/15 95/202/127
f 100/189/130 101/23/20 136/79/15 105/232/15 106/233/15
f 111/198/139 112/197/138 117/234/177 138/235/177 137/236/177
f 92/183/126 111/237/144 137/238/178 91/180/125
f 116/44/147 112/44/146 109/73/149 118/73/148
f 100/239/179 124/214/159 139/240/180 99/241/181
f 131/242/165 90/243/164 87/244/167 133/245/166
f 81/246/182 140/247/183 122/208/153 82/229/176
f 140/247/183 115/248/184 116/209/154 122/208/153
f 89/44/174 142/95/185 141/46/185 125/44/175
f 142/249/186 89/178/123 90/177/122 132/250/186
f 138/235/187 117/234/188 91/251/189 137/236/187
f 117/234/188 115/252/190 94/253/191 91/251/189
f 132/250/192 130/254/193 141/255/194 142/249/192
f 93/182/15 94/181/15 130/219/162 131/222/165
f 97/186/15 98/185/15 133/223/166 134/226/169
f 98/231/15 93/230/15 131/242/165 133/245/166
f 94/253/191 115/252/190 141/255/194 130/254/193
f 115/256/190 140/257/195 139/258/196 141/259/194
f 107/194/135 108/193/134 135/260/197 123/212/157
f 107/194/135 124/214/159 100/239/179 106/195/136
f 139/240/180 124/214/159 125/213/158 141/261/198
f 108/193/134 74/110/199 143/109/200 135/260/197
f 140/257/195 81/262/201 99/263/202 139/258/196
f 81/262/201 75/114/98 102/113/98 99/263/202
f 144/264/99 151/265/99 150/266/99 149/120/99 148/119/99 147/267/99 146/268/99 145/269/99
f 152/267/100 76/125/100 77/124/100 157/266/100 156/265/100 155/264/100 154/269/100 153/268/100
f 144/126/203 145/131/203 154/130/203 155/129/203 156/128/203 151/127/203
f 151/270/204 156/271/204 157/272/205 150/273/205
f 145/131/206 146/139/206 147/138/207 152/137/207 153/136/206 154/130/206
f 150/273/205 157/272/205 77/141/15 149/140/15
f 158/274/106 159/275/106 79/144/106 78/143/106
f 160/276/15 162/149/15 80/148/15 161/277/15
f 158/138/208 160/137/208 161/128/208 159/127/208
f 159/278/99 161/279/99 80/152/99 79/151/99
f 136/154/209 74/110/199 108/193/134 105/192/133
f 163/280/210 121/281/210 113/200/141 114/201/142
f 71/191/24 163/282/110 114/206/152 96/187/128
f 120/158/211 72/26/131 85/174/119 119/211/156
f 143/159/112 129/160/112 126/47/171 135/47/170
f 103/161/113 73/3/3 82/171/116 83/283/212 84/284/212
f 70/228/63 104/190/15 97/186/15 134/226/169
f 148/164/106 76/165/106 152/128/207 147/127/207
f 78/166/100 162/169/100 160/285/100 158/286/100
